<svg xmlns="http://www.w3.org/2000/svg" width="48" height="48" viewBox="0 0 48 48">
    <path fill="#FFF" fill-rule="evenodd" d="M47.215 4.243c-1.824-2.177-5.08-1.056-7.151.05-2.466 1.319-4.657 3.106-6.69 5.003-4.053 3.781-7.191 8.208-9.36 13.286L24 22.553l-.014.03c-2.17-5.079-5.308-9.506-9.361-13.287-2.032-1.897-4.223-3.684-6.69-5.002-2.069-1.107-5.326-2.228-7.15-.05-.788.938-.803 2.179-.78 3.337.032 1.598.061 3.196.115 4.793.102 3.043.286 6.132 1.273 9.041.679 2 1.943 3.772 3.874 4.745 2.582 1.302 5.708 1.343 8.533 1.526-3.268.606-6.48 1.335-8.125 4.529-1.905 3.7.816 7.587 3.462 10.186 1.143 1.124 2.651 2.279 4.28 2.558 1.859.316 3.672-1.244 4.976-2.38 2.65-2.306 4.333-5.188 5.54-8.432.023.044.045.09.067.135l.066-.135c1.208 3.244 2.89 6.126 5.54 8.433 1.305 1.135 3.118 2.695 4.978 2.379 1.627-.279 3.136-1.434 4.279-2.558 2.647-2.6 5.366-6.487 3.46-10.186-1.643-3.194-4.855-3.923-8.123-4.53 2.825-.182 5.95-.223 8.534-1.525 1.93-.973 3.194-2.745 3.873-4.745.987-2.909 1.17-5.998 1.273-9.041.054-1.597.082-3.195.115-4.793.023-1.158.007-2.399-.78-3.338"/>
</svg>
