<svg xmlns="http://www.w3.org/2000/svg" width="32" height="32" viewBox="0 0 32 32">
    <path fill="#FFF" fill-rule="evenodd" d="M16 0C7.164 0 0 7.164 0 16s7.164 16 16 16 16-7.164 16-16S24.836 0 16 0zm12.756 12.13a.801.801 0 0 0-.275-.183c-.343-.135-1.8.804-2.02.34-.144-.307-.436.199-.77.012-.162-.09-.612-.694-.815-.62-.416.149.639 1.299.925 1.45.271-.206 1.147-.626 1.336-.053.362 1.083-.993 2.27-1.685 2.895-1.033.936-.84-.606-1.545-1.147-.37-.284-.366-.89-.74-1.098-.167-.095-.934-.977-.926-1.095l-.022.223c-.127.095-.396-.36-.425-.434 0 .398.646 1.03.86 1.348.365.545.561 1.34 1.009 1.786.238.24 1.155 1.23 1.393 1.21l1.228-.583c.865.206-2.041 4.316-2.317 4.826-.228.428.185 1.482.151 1.987-.038.582-.498.771-.933 1.089-.466.34-.357 1.002-.749 1.245-.695.428-1.196 1.822-2.186 1.815-.29-.001-1.534.485-1.697.01-.126-.345-.297-.608-.474-.948-.175-.333-.02-.68-.234-.974-.147-.205-.638-.67-.683-.912-.004-.21.157-.843.377-.953.308-.158.058-.616.021-.885-.064-.475-.36-.869-.713-1.145-.524-.402-.252-.723-.13-1.299 0-.274-.169-.634-.537-.528-.76.222-.528-.593-1.083-.556-.398.029-.724.282-1.094.394-.465.139-.943-.11-1.404-.168-1.895-.239-2.513-2.406-2.019-3.968.05-.256-.153-.73-.064-.928.212-.47.647-1.003 1.024-1.362.214-.202.486-.15.738-.308.386-.242.39-.744.77-1.052.539-.437 1.275-.428 1.976-.522.375-.05 1.8-.358 2.024-.08 0 .052.257.815-.026.77.584.031 1.416 1.009 1.969.78.283-.118.18-.992.763-.569.354.254 1.934.367 2.262.093.203-.166.315-1.251.07-1.374.157.154-.823.167-.914.132-.163-.059-.313.153-.574.033.156.073-.867-.477-.293-.899-.24.176-.465-.049-.725.146-.18.145.083.241-.173.37-.407.206-.714-.708-.866-.81-.157-.103-1.365-.951-1.035-.398l1.062 1.058c-.053.035-.278-.386-.278-.08.07-.18.026.781-.14.468-.076-.12.12-.187.008-.362 0-.113-.308-.225-.367-.304-.168-.21-.616-.67-.859-.78-.067-.032-1.028.117-1.11.149-.094.131-.174.27-.24.417-.2.075-.387.17-.565.289l-.211.475c-.091.081-1.03.392-1.035.404.04-.101-.656-.23-.61-.432.051-.223.287-.916.226-1.17-.064-.265 1.446.383 1.544-.317.038-.303.062-.656-.421-.708.092.01.935-.332 1.075-.485.198-.226.649-.596.975-.596.381 0 .3-.556.475-.83.177.071-.095.507.117.683-.013-.139.6.076.658.044.14-.075.922-.03.802-.399-.135-.373.07-.262.244-.34-.026.011.33-.61.485-.608-.14-.118-.532.15-.69.138-.41-.032-.235-.7-.08-.896.12-.155-.328-.344-.334-.048-.008.442-.418.844-.323 1.433.145.888-.991-.215-1.088-.153-.378.23-.687-.288-.492-.599.2-.317.681-.301.88-.64.138-.239.302-.519.517-.699.72-.605.918-.121 1.638-.056.702.064.237.167.14.436-.093.256.386.349.55.134.096-.123.31-.435.402-.666.094-.233.77-.266.703-.486a13.4 13.4 0 0 1 7.592 8.424zM13.94 7.093l.09-.116.097-.025c.056-.046.115-.158.202-.139.057.012.195.127.148.197-.05.072-.088-.065-.108.135-.024.225-.25.222-.418.296-.115.05-.233-.024-.12-.138l.118-.145-.01-.065zm.59.327c.06-.06.183-.011.2-.126.019-.111.104-.237-.01-.446-.03-.056.154-.11.067-.183l-.144.043s.206-.89.485-.488l-.119.137c.18.179.23.627.287.916.17.088.432.104.13.256.156-.027-.823.418-.953.238-.096-.111.423-.186.41-.231-.006-.015-.424-.027-.354-.116zm1.906-4.73l-.475.435c-.48.397-1.707 1.177-2.39.94-.7-.24-2.197.89-2.435.897-.09.004.003-.854.48-.918-.188.028 1.324-.767 1.58-1.074A13.316 13.316 0 0 1 16 2.667l.435.022zM9.653 4.276c.093.11.37.123-.034.384-.244.147-.503 1.078-.731 1.078-.68.298-.723-.584-1.479.551-.104.154-.527.211-.859.315a13.45 13.45 0 0 1 3.103-2.328zM2.666 16c0-.721.074-1.424.186-2.114l.39.246c.15.18.15.959.225 1.215.185.642.645 1.001.997 1.586.206.349.552 1.23.443 1.597.145-.24 1.441 1.098 1.678 1.377.557.656.987 1.45.082 2.099-.293.21.445 1.52.065 1.842l-.487.125c-.3.185-.313.53-.221.842C3.94 22.462 2.666 19.38 2.666 16zm19.13-7.764c.11-.014-.143.223-.143.223.045.341.296.528.775.702.583.21.051.607-.284.514-.185-.052-1.138-.34-1.172.033 0 .223-.905.002-.764-.233.097-.159.067-.516.248-.75.257-.34.507-.154.514.043 0 .526.531-.497.826-.532z"/>
</svg>
